{
    "asset" : {
        "generator" : "Khronos glTF Blender I/O v1.6.16",
        "version" : "2.0"
    },
    "scene" : 0,
    "scenes" : [
        {
            "name" : "Scene",
            "nodes" : [
                1,
                2,
                3
            ]
        }
    ],
    "nodes" : [
        {
            "mesh" : 0,
            "name" : "node_id36",
            "rotation" : [
                0,
                -0.15050554275512695,
                0,
                0.9886091351509094
            ],
            "scale" : [
                0.012806689366698265,
                0.012806689366698265,
                0.012806689366698265
            ]
        },
        {
            "children" : [
                0
            ],
            "name" : "root"
        },
        {
            "name" : "Light",
            "rotation" : [
                0.16907575726509094,
                0.7558803558349609,
                -0.27217137813568115,
                0.570947527885437
            ],
            "translation" : [
                4.076245307922363,
                5.903861999511719,
                -1.0054539442062378
            ]
        },
        {
            "name" : "Camera",
            "rotation" : [
                0.483536034822464,
                0.33687159419059753,
                -0.20870360732078552,
                0.7804827094078064
            ],
            "translation" : [
                7.358891487121582,
                4.958309173583984,
                6.925790786743164
            ]
        }
    ],
    "materials" : [
        {
            "alphaCutoff" : 0.5,
            "alphaMode" : "MASK",
            "doubleSided" : true,
            "name" : "57",
            "pbrMetallicRoughness" : {}
        }
    ],
    "meshes" : [
        {
            "name" : "mesh_id37",
            "primitives" : [
                {
                    "attributes" : {
                        "POSITION" : 0,
                        "NORMAL" : 1,
                        "TEXCOORD_0" : 2
                    },
                    "indices" : 3,
                    "material" : 0
                }
            ]
        }
    ],
    "accessors" : [
        {
            "bufferView" : 0,
            "componentType" : 5126,
            "count" : 19515,
            "max" : [
                19.98956298828125,
                12.657848358154297,
                21.26597785949707
            ],
            "min" : [
                -19.989547729492188,
                -5.265615463256836,
                -26.01360511779785
            ],
            "type" : "VEC3"
        },
        {
            "bufferView" : 1,
            "componentType" : 5126,
            "count" : 19515,
            "type" : "VEC3"
        },
        {
            "bufferView" : 2,
            "componentType" : 5126,
            "count" : 19515,
            "type" : "VEC2"
        },
        {
            "bufferView" : 3,
            "componentType" : 5123,
            "count" : 103299,
            "type" : "SCALAR"
        }
    ],
    "bufferViews" : [
        {
            "buffer" : 0,
            "byteLength" : 234180,
            "byteOffset" : 0
        },
        {
            "buffer" : 0,
            "byteLength" : 234180,
            "byteOffset" : 234180
        },
        {
            "buffer" : 0,
            "byteLength" : 156120,
            "byteOffset" : 468360
        },
        {
            "buffer" : 0,
            "byteLength" : 206598,
            "byteOffset" : 624480
        }
    ],
    "buffers" : [
        {
            "byteLength" : 831080,
            "uri" : "data:application/octet-stream;base64,"
        }
    ]
}
