<svg width="50" height="50" xmlns="http://www.w3.org/2000/svg">
 <!-- Created with Method Draw - http://github.com/duopixel/Method-Draw/ -->
 <g id="Layer_1">
  <title>Layer 1</title>
  <path id="svg_3" d="m8.74237,39.6842l0,-17.8945l0,0c0,-7.68667 6.9046,-13.91795 15.42185,-13.91795l0,0l0,0c4.09013,0 8.01274,1.46635 10.9049,4.07647c2.89216,2.61012 4.51695,6.15021 4.51695,9.84148l0,1.98828l4.40624,0l-8.81248,7.95312l-8.81249,-7.95312l4.40624,0l0,-1.98828c0,-3.29429 -2.95911,-5.96483 -6.60936,-5.96483l0,0l0,0c-3.65025,0 -6.60937,2.67055 -6.60937,5.96483l0,17.8945l-8.81249,0z" opacity="undefined" fill-opacity="null" stroke-opacity="null" stroke-dasharray="null" stroke-width="null" stroke="#000" fill="#fff"/>
 </g>
</svg>